<svg xmlns="http://www.w3.org/2000/svg" xmlns:xlink="http://www.w3.org/1999/xlink" width="290" zoomAndPan="magnify" viewBox="0 0 217.5 67.499998" height="90" preserveAspectRatio="xMidYMid meet" version="1.0"><defs><g/><clipPath id="140f1ede45"><path d="M 37.964844 22.023438 L 78.703125 22.023438 L 78.703125 64.515625 L 37.964844 64.515625 Z M 37.964844 22.023438 " clip-rule="nonzero"/></clipPath><clipPath id="8f16f1850a"><path d="M 77.476562 36.1875 C 78.21875 38.355469 78.703125 40.839844 78.703125 43.265625 C 78.703125 45.695312 78.289062 48.035156 77.546875 50.1875 C 77.523438 50.234375 77.523438 50.28125 77.5 50.324219 C 74.539062 58.414062 66.71875 64.371094 57.839844 64.488281 L 37.964844 64.488281 L 37.964844 22.023438 L 57.824219 22.023438 C 66.765625 22.140625 74.585938 28.003906 77.476562 36.1875 Z M 77.476562 36.1875 " clip-rule="nonzero"/></clipPath><clipPath id="b0192f6405"><path d="M 16.707031 2.511719 L 59.195312 2.511719 L 59.195312 43.253906 L 16.707031 43.253906 Z M 16.707031 2.511719 " clip-rule="nonzero"/></clipPath><clipPath id="c4e6eb93ed"><path d="M 45.035156 42.027344 C 42.863281 42.765625 40.382812 43.253906 37.953125 43.253906 C 35.523438 43.253906 33.1875 42.835938 31.03125 42.09375 C 30.988281 42.074219 30.941406 42.074219 30.894531 42.050781 C 22.804688 39.089844 16.847656 31.269531 16.734375 22.386719 L 16.734375 2.511719 L 59.195312 2.511719 L 59.195312 22.371094 C 59.082031 31.316406 53.214844 39.132812 45.035156 42.027344 Z M 45.035156 42.027344 " clip-rule="nonzero"/></clipPath><clipPath id="9b5aeff6a6"><path d="M 37.96875 22.023438 L 59.195312 22.023438 L 59.195312 43.25 L 37.96875 43.25 Z M 37.96875 22.023438 " clip-rule="nonzero"/></clipPath></defs><g clip-path="url(#140f1ede45)"><g clip-path="url(#8f16f1850a)"><path fill="#ffffff" d="M 78.703125 22.023438 L 78.703125 64.515625 L 37.964844 64.515625 L 37.964844 22.023438 Z M 78.703125 22.023438 " fill-opacity="1" fill-rule="nonzero"/></g></g><g clip-path="url(#b0192f6405)"><g clip-path="url(#c4e6eb93ed)"><path fill="#ffffff" d="M 59.195312 43.253906 L 16.707031 43.253906 L 16.707031 2.511719 L 59.195312 2.511719 Z M 59.195312 43.253906 " fill-opacity="1" fill-rule="nonzero"/></g></g><g clip-path="url(#9b5aeff6a6)"><path fill="#4446f1" d="M 37.96875 43.25 C 49.691406 43.25 59.195312 33.746094 59.195312 22.023438 L 37.96875 22.023438 Z M 37.96875 43.25 " fill-opacity="1" fill-rule="nonzero"/></g><g fill="#ffffff" fill-opacity="1"><g transform="translate(83.977427, 29.251019)"><g><path d="M 8.890625 0.34375 C 7.398438 0.34375 6.085938 0.0859375 4.953125 -0.421875 C 3.816406 -0.929688 2.921875 -1.664062 2.265625 -2.625 C 1.609375 -3.582031 1.269531 -4.742188 1.25 -6.109375 L 5.15625 -6.109375 C 5.195312 -5.160156 5.539062 -4.363281 6.1875 -3.71875 C 6.832031 -3.070312 7.722656 -2.75 8.859375 -2.75 C 9.847656 -2.75 10.628906 -2.984375 11.203125 -3.453125 C 11.785156 -3.929688 12.078125 -4.566406 12.078125 -5.359375 C 12.078125 -6.191406 11.820312 -6.835938 11.3125 -7.296875 C 10.800781 -7.765625 10.117188 -8.140625 9.265625 -8.421875 C 8.421875 -8.710938 7.515625 -9.023438 6.546875 -9.359375 C 4.984375 -9.898438 3.789062 -10.59375 2.96875 -11.4375 C 2.144531 -12.289062 1.734375 -13.421875 1.734375 -14.828125 C 1.710938 -16.023438 1.992188 -17.050781 2.578125 -17.90625 C 3.171875 -18.769531 3.976562 -19.4375 5 -19.90625 C 6.03125 -20.382812 7.210938 -20.625 8.546875 -20.625 C 9.898438 -20.625 11.09375 -20.378906 12.125 -19.890625 C 13.15625 -19.410156 13.960938 -18.734375 14.546875 -17.859375 C 15.140625 -16.992188 15.457031 -15.96875 15.5 -14.78125 L 11.53125 -14.78125 C 11.507812 -15.488281 11.234375 -16.117188 10.703125 -16.671875 C 10.171875 -17.222656 9.429688 -17.5 8.484375 -17.5 C 7.671875 -17.519531 6.988281 -17.320312 6.4375 -16.90625 C 5.894531 -16.488281 5.625 -15.882812 5.625 -15.09375 C 5.625 -14.414062 5.832031 -13.878906 6.25 -13.484375 C 6.675781 -13.085938 7.253906 -12.753906 7.984375 -12.484375 C 8.722656 -12.210938 9.566406 -11.921875 10.515625 -11.609375 C 11.515625 -11.265625 12.429688 -10.859375 13.265625 -10.390625 C 14.097656 -9.929688 14.765625 -9.320312 15.265625 -8.5625 C 15.765625 -7.800781 16.015625 -6.820312 16.015625 -5.625 C 16.015625 -4.5625 15.742188 -3.570312 15.203125 -2.65625 C 14.660156 -1.75 13.859375 -1.019531 12.796875 -0.46875 C 11.734375 0.0703125 10.429688 0.34375 8.890625 0.34375 Z M 8.890625 0.34375 "/></g></g></g><g fill="#ffffff" fill-opacity="1"><g transform="translate(100.630094, 29.251019)"><g><path d="M 1.96875 0 L 1.96875 -20.28125 L 6.375 -20.28125 L 12.828125 -7.421875 L 19.203125 -20.28125 L 23.609375 -20.28125 L 23.609375 0 L 19.90625 0 L 19.90625 -13.984375 L 14.25 -2.890625 L 11.328125 -2.890625 L 5.671875 -13.984375 L 5.671875 0 Z M 1.96875 0 "/></g></g></g><g fill="#ffffff" fill-opacity="1"><g transform="translate(125.565754, 29.251019)"><g><path d="M 1.96875 0 L 1.96875 -20.28125 L 6.375 -20.28125 L 12.828125 -7.421875 L 19.203125 -20.28125 L 23.609375 -20.28125 L 23.609375 0 L 19.90625 0 L 19.90625 -13.984375 L 14.25 -2.890625 L 11.328125 -2.890625 L 5.671875 -13.984375 L 5.671875 0 Z M 1.96875 0 "/></g></g></g><g fill="#ffffff" fill-opacity="1"><g transform="translate(150.501417, 29.251019)"><g><path d="M 1.96875 0 L 1.96875 -20.28125 L 10.109375 -20.28125 C 12.210938 -20.28125 13.816406 -19.789062 14.921875 -18.8125 C 16.035156 -17.84375 16.59375 -16.59375 16.59375 -15.0625 C 16.59375 -13.789062 16.25 -12.769531 15.5625 -12 C 14.882812 -11.238281 14.050781 -10.722656 13.0625 -10.453125 C 14.21875 -10.222656 15.171875 -9.648438 15.921875 -8.734375 C 16.679688 -7.816406 17.0625 -6.75 17.0625 -5.53125 C 17.0625 -3.925781 16.484375 -2.601562 15.328125 -1.5625 C 14.171875 -0.519531 12.53125 0 10.40625 0 Z M 5.671875 -11.765625 L 9.5625 -11.765625 C 10.601562 -11.765625 11.398438 -12.003906 11.953125 -12.484375 C 12.515625 -12.960938 12.796875 -13.648438 12.796875 -14.546875 C 12.796875 -15.390625 12.519531 -16.054688 11.96875 -16.546875 C 11.425781 -17.046875 10.601562 -17.296875 9.5 -17.296875 L 5.671875 -17.296875 Z M 5.671875 -3.015625 L 9.828125 -3.015625 C 10.921875 -3.015625 11.769531 -3.269531 12.375 -3.78125 C 12.988281 -4.289062 13.296875 -5.007812 13.296875 -5.9375 C 13.296875 -6.882812 12.976562 -7.628906 12.34375 -8.171875 C 11.707031 -8.710938 10.847656 -8.984375 9.765625 -8.984375 L 5.671875 -8.984375 Z M 5.671875 -3.015625 "/></g></g></g><g fill="#ffffff" fill-opacity="1"><g transform="translate(168.138771, 29.251019)"><g><path d="M 1.96875 0 L 1.96875 -20.28125 L 5.671875 -20.28125 L 5.671875 0 Z M 1.96875 0 "/></g></g></g><g fill="#ffffff" fill-opacity="1"><g transform="translate(175.147254, 29.251019)"><g><path d="M 1.96875 0 L 1.96875 -20.28125 L 8.890625 -20.28125 C 11.265625 -20.28125 13.21875 -19.859375 14.75 -19.015625 C 16.289062 -18.179688 17.429688 -17.003906 18.171875 -15.484375 C 18.921875 -13.960938 19.296875 -12.179688 19.296875 -10.140625 C 19.296875 -8.085938 18.921875 -6.300781 18.171875 -4.78125 C 17.429688 -3.269531 16.289062 -2.09375 14.75 -1.25 C 13.21875 -0.414062 11.265625 0 8.890625 0 Z M 5.671875 -3.1875 L 8.71875 -3.1875 C 10.414062 -3.1875 11.753906 -3.460938 12.734375 -4.015625 C 13.722656 -4.566406 14.429688 -5.359375 14.859375 -6.390625 C 15.285156 -7.421875 15.5 -8.671875 15.5 -10.140625 C 15.5 -11.585938 15.285156 -12.832031 14.859375 -13.875 C 14.429688 -14.914062 13.722656 -15.71875 12.734375 -16.28125 C 11.753906 -16.84375 10.414062 -17.125 8.71875 -17.125 L 5.671875 -17.125 Z M 5.671875 -3.1875 "/></g></g></g><g fill="#ffffff" fill-opacity="1"><g transform="translate(86.754874, 56.631586)"><g><path d="M 1.984375 0 L 1.984375 -20.359375 L 6.40625 -20.359375 L 12.890625 -7.453125 L 19.296875 -20.359375 L 23.71875 -20.359375 L 23.71875 0 L 19.984375 0 L 19.984375 -14.046875 L 14.3125 -2.90625 L 11.375 -2.90625 L 5.703125 -14.046875 L 5.703125 0 Z M 1.984375 0 "/></g></g></g><g fill="#ffffff" fill-opacity="1"><g transform="translate(111.801141, 56.631586)"><g><path d="M 1.984375 0 L 1.984375 -20.359375 L 15.28125 -20.359375 L 15.28125 -17.375 L 5.703125 -17.375 L 5.703125 -11.78125 L 14.40625 -11.78125 L 14.40625 -8.875 L 5.703125 -8.875 L 5.703125 -3 L 15.28125 -3 L 15.28125 0 Z M 1.984375 0 "/></g></g></g><g fill="#ffffff" fill-opacity="1"><g transform="translate(127.97496, 56.631586)"><g><path d="M 1.984375 0 L 1.984375 -20.359375 L 8.9375 -20.359375 C 11.320312 -20.359375 13.285156 -19.9375 14.828125 -19.09375 C 16.367188 -18.25 17.507812 -17.066406 18.25 -15.546875 C 19 -14.023438 19.375 -12.238281 19.375 -10.1875 C 19.375 -8.125 19 -6.332031 18.25 -4.8125 C 17.507812 -3.289062 16.367188 -2.109375 14.828125 -1.265625 C 13.285156 -0.421875 11.320312 0 8.9375 0 Z M 5.703125 -3.203125 L 8.75 -3.203125 C 10.457031 -3.203125 11.804688 -3.476562 12.796875 -4.03125 C 13.785156 -4.582031 14.492188 -5.375 14.921875 -6.40625 C 15.347656 -7.445312 15.5625 -8.707031 15.5625 -10.1875 C 15.5625 -11.632812 15.347656 -12.878906 14.921875 -13.921875 C 14.492188 -14.972656 13.785156 -15.78125 12.796875 -16.34375 C 11.804688 -16.90625 10.457031 -17.1875 8.75 -17.1875 L 5.703125 -17.1875 Z M 5.703125 -3.203125 "/></g></g></g><g fill="#ffffff" fill-opacity="1"><g transform="translate(148.01775, 56.631586)"><g><path d="M 1.984375 0 L 1.984375 -20.359375 L 5.703125 -20.359375 L 5.703125 0 Z M 1.984375 0 "/></g></g></g><g fill="#ffffff" fill-opacity="1"><g transform="translate(155.05732, 56.631586)"><g><path d="M 0.671875 0 L 8.109375 -20.359375 L 12.3125 -20.359375 L 19.75 0 L 15.796875 0 L 14.171875 -4.71875 L 6.21875 -4.71875 L 4.5625 0 Z M 7.25 -7.625 L 13.15625 -7.625 L 10.1875 -16.09375 Z M 7.25 -7.625 "/></g></g></g></svg>