<svg width="130" height="25" viewBox="0 0 130 25" fill="none" xmlns="http://www.w3.org/2000/svg">
<path d="M10.1036 3.91516C8.58329 3.91516 8.14373 4.58947 8.14373 6.07674V8.54396H12.199L11.7926 12.53H8.1453V24.6266H3.2786V12.53H0V8.54396H3.2786V6.14449C3.2786 2.12383 4.89979 6.24276e-05 9.42303 6.24276e-05C10.3708 -0.00214326 11.318 0.0541006 12.2589 0.168639V3.91989L10.1036 3.91516Z" fill="#B3B3B3"/>
<path d="M12.5352 16.078C12.5352 11.5847 14.6636 8.20056 19.1239 8.20056C21.5564 8.20056 23.0421 9.4515 23.7527 11.0049V8.54402H28.4146V24.6267H23.7527V22.1941C23.0768 23.7491 21.5564 24.9654 19.1239 24.9654C14.6636 24.9654 12.5352 21.586 12.5352 17.0879V16.078ZM17.4003 17.1604C17.4003 19.5583 18.2778 21.1464 20.5418 21.1464C22.5364 21.1464 23.5494 19.6938 23.5494 17.3967V15.7818C23.5494 13.4848 22.5364 12.0322 20.5418 12.0322C18.2778 12.0322 17.4003 13.6203 17.4003 16.0182V17.1604Z" fill="#B3B3B3"/>
<path d="M38.5545 8.20532C40.4451 8.20532 42.2364 8.6118 43.2164 9.28611L42.1356 12.7333C41.1219 12.2506 40.0143 11.9966 38.8916 11.9897C36.2558 11.9897 35.1105 13.51 35.1105 16.1127V17.058C35.1105 19.6607 36.259 21.1811 38.8916 21.1811C40.0143 21.174 41.1219 20.9202 42.1356 20.4375L43.2164 23.8831C42.2364 24.5589 40.4467 24.9654 38.5545 24.9654C32.8433 24.9654 30.2422 21.8901 30.2422 16.9572V16.2136C30.2422 11.2807 32.8433 8.20532 38.5545 8.20532Z" fill="#B3B3B3"/>
<path d="M43.8555 17.1997V15.7817C43.8555 11.2207 46.4566 8.21936 51.7629 8.21936C56.7635 8.21936 58.9597 11.2601 58.9597 15.7203V18.2883H48.719C48.8214 20.4846 49.8014 21.4645 52.5002 21.4645C54.3262 21.4645 56.2515 21.0927 57.671 20.4846L58.5611 23.8167C57.2771 24.4942 54.6413 24.9999 52.3111 24.9999C46.1525 24.9984 43.8555 21.9262 43.8555 17.1997ZM48.7206 15.1043H54.6003V14.6994C54.6003 12.9427 53.8914 11.5484 51.7644 11.5484C49.5666 11.55 48.7206 12.9364 48.7206 15.098V15.1043Z" fill="#B3B3B3"/>
<path d="M76.993 17.0926C76.993 21.5859 74.8314 24.9701 70.3759 24.9701C67.9433 24.9701 66.2544 23.7538 65.5785 22.1988V24.6313H60.9844V0.467994L65.8495 0.0268555V10.7717C66.5585 9.35378 68.1135 8.20367 70.3775 8.20367C74.8377 8.20367 76.9945 11.5831 76.9945 16.0811L76.993 17.0926ZM72.1278 15.9772C72.1278 13.7132 71.2503 12.0242 68.9186 12.0242C66.924 12.0242 65.8432 13.4422 65.8432 15.7408V17.4298C65.8432 19.7268 66.924 21.1463 68.9186 21.1463C71.2503 21.1463 72.1278 19.4574 72.1278 17.1934V15.9772Z" fill="#B3B3B3"/>
<path d="M78.6211 16.9903V16.1805C78.6211 11.5501 81.2569 8.20532 86.6293 8.20532C92.0018 8.20532 94.6391 11.5501 94.6391 16.1805V16.9903C94.6391 21.6191 92.0033 24.9654 86.6309 24.9654C81.2585 24.9654 78.6211 21.6191 78.6211 16.9903ZM89.7724 15.8417C89.7724 13.7132 88.8933 12.0243 86.6215 12.0243C84.3496 12.0243 83.4783 13.7132 83.4783 15.8417V17.329C83.4783 19.4575 84.3575 21.1464 86.6215 21.1464C88.8854 21.1464 89.7724 19.4575 89.7724 17.329V15.8417Z" fill="#B3B3B3"/>
<path d="M96.2578 16.9903V16.1805C96.2578 11.5501 98.8936 8.20532 104.266 8.20532C109.638 8.20532 112.274 11.5501 112.274 16.1805V16.9903C112.274 21.6191 109.638 24.9654 104.266 24.9654C98.8936 24.9654 96.2578 21.6191 96.2578 16.9903ZM107.409 15.8417C107.409 13.7132 106.53 12.0243 104.266 12.0243C102.002 12.0243 101.125 13.7132 101.125 15.8417V17.329C101.125 19.4575 102.002 21.1464 104.266 21.1464C106.53 21.1464 107.409 19.4575 107.409 17.329V15.8417Z" fill="#B3B3B3"/>
<path d="M118.964 16.2135L123.762 8.54397H128.931L123.897 16.4845L129.134 24.6266H123.965L118.964 16.7491V24.6266H114.098V0.467994L118.964 0.0268555V16.2135Z" fill="#B3B3B3"/>
</svg>
