<svg width="119" height="40" viewBox="0 0 119 40" fill="none" xmlns="http://www.w3.org/2000/svg">
<path d="M50.9243 20.6145C50.9243 26.2503 46.5154 30.4032 41.1047 30.4032C35.694 30.4032 31.2852 26.2503 31.2852 20.6145C31.2852 14.939 35.694 10.8258 41.1047 10.8258C46.5154 10.8258 50.9243 14.939 50.9243 20.6145ZM46.6258 20.6145C46.6258 17.0927 44.0705 14.683 41.1047 14.683C38.139 14.683 35.5837 17.0927 35.5837 20.6145C35.5837 24.101 38.139 26.5459 41.1047 26.5459C44.0705 26.5459 46.6258 24.0966 46.6258 20.6145Z" fill="#B3B3B3"/>
<path d="M72.1079 20.6145C72.1079 26.2503 67.699 30.4032 62.2883 30.4032C56.8776 30.4032 52.4688 26.2503 52.4688 20.6145C52.4688 14.9434 56.8776 10.8258 62.2883 10.8258C67.699 10.8258 72.1079 14.939 72.1079 20.6145ZM67.8093 20.6145C67.8093 17.0927 65.2541 14.683 62.2883 14.683C59.3226 14.683 56.7673 17.0927 56.7673 20.6145C56.7673 24.101 59.3226 26.5459 62.2883 26.5459C65.2541 26.5459 67.8093 24.0966 67.8093 20.6145Z" fill="#B3B3B3"/>
<path d="M92.4098 11.4172V28.9909C92.4098 36.2199 88.1466 39.1724 83.1066 39.1724C78.3623 39.1724 75.5069 35.9992 74.4301 33.4042L78.1726 31.8463C78.839 33.4395 80.4719 35.3196 83.1022 35.3196C86.3283 35.3196 88.3276 33.3292 88.3276 29.5823V28.1745H88.1775C87.2154 29.3616 85.3618 30.3988 83.0228 30.3988C78.1284 30.3988 73.6445 26.1355 73.6445 20.6498C73.6445 15.1244 78.1284 10.8258 83.0228 10.8258C85.3574 10.8258 87.211 11.8629 88.1775 13.0148H88.3276V11.4216H92.4098V11.4172ZM88.6321 20.6498C88.6321 17.203 86.3327 14.683 83.4067 14.683C80.441 14.683 77.9563 17.203 77.9563 20.6498C77.9563 24.0613 80.441 26.5459 83.4067 26.5459C86.3327 26.5459 88.6321 24.0613 88.6321 20.6498Z" fill="#B3B3B3"/>
<path d="M99.1399 1.11658V29.803H94.9473V1.11658H99.1399Z" fill="#B3B3B3"/>
<path d="M115.478 23.8362L118.815 26.0605C117.738 27.6537 115.143 30.3988 110.659 30.3988C105.098 30.3988 100.945 26.1002 100.945 20.6101C100.945 14.789 105.134 10.8214 110.178 10.8214C115.258 10.8214 117.742 14.864 118.554 17.0486L119 18.1607L105.915 23.5802C106.917 25.5442 108.474 26.546 110.659 26.546C112.848 26.546 114.366 25.4691 115.478 23.8362ZM105.209 20.3144L113.956 16.6823C113.475 15.4598 112.027 14.608 110.324 14.608C108.139 14.608 105.098 16.5366 105.209 20.3144Z" fill="#B3B3B3"/>
<path d="M15.4156 18.068V13.9151H29.4102C29.547 14.6389 29.6176 15.4951 29.6176 16.4219C29.6176 19.5376 28.7658 23.3904 26.0208 26.1355C23.3507 28.9159 19.9393 30.3988 15.42 30.3988C7.04361 30.3988 0 23.5758 0 15.1994C0 6.82295 7.04361 0 15.42 0C20.054 0 23.3551 1.81828 25.8354 4.18821L22.905 7.11864C21.1264 5.45042 18.7168 4.15291 15.4156 4.15291C9.29881 4.15291 4.5148 9.08255 4.5148 15.1994C4.5148 21.3162 9.29881 26.2458 15.4156 26.2458C19.3832 26.2458 21.6428 24.6526 23.0903 23.2051C24.2643 22.0312 25.0366 20.3541 25.3411 18.0636L15.4156 18.068Z" fill="#B3B3B3"/>
</svg>
