<svg width="119" height="32" viewBox="0 0 119 32" fill="none" xmlns="http://www.w3.org/2000/svg">
<path fill-rule="evenodd" clip-rule="evenodd" d="M0 26.5247H13.0391V22.2135H4.7187V5.76501H0V26.5247Z" fill="#B3B3B3"/>
<path fill-rule="evenodd" clip-rule="evenodd" d="M19.6388 26.5247V12.2261H14.9196V26.5247H19.6388ZM17.2792 10.2738C18.9249 10.2738 19.9492 9.1758 19.9492 7.80277C19.9185 6.40012 18.9249 5.333 17.3106 5.333C15.6961 5.333 14.6406 6.40012 14.6406 7.80277C14.6406 9.1758 15.6647 10.2738 17.2484 10.2738H17.2792Z" fill="#B3B3B3"/>
<path fill-rule="evenodd" clip-rule="evenodd" d="M21.832 26.5247H26.5512V18.5395C26.5512 18.1121 26.5819 17.6852 26.7067 17.3797C27.0476 16.5263 27.8241 15.642 29.1278 15.642C30.8356 15.642 31.5187 16.9536 31.5187 18.8746V26.5247H36.2374V18.3258C36.2374 13.9338 33.9091 11.8901 30.8042 11.8901C28.2586 11.8901 27.1408 13.3232 26.5198 14.2994H26.5513V12.2261H21.8321C21.8941 13.5678 21.832 26.5247 21.832 26.5247Z" fill="#B3B3B3"/>
<path fill-rule="evenodd" clip-rule="evenodd" d="M42.8951 5.76501H38.1758V26.5247H42.8951V21.8889L44.0745 20.3936L47.7691 26.5247H53.5745L47.3656 17.6488L52.7987 11.61H47.1174C47.1174 11.61 43.2367 17.0129 42.8951 17.6535V5.76501Z" fill="#B3B3B3"/>
<path fill-rule="evenodd" clip-rule="evenodd" d="M66.1953 20.5604C66.2573 20.1931 66.3507 19.4886 66.3507 18.6923C66.3507 14.9959 64.4875 11.2436 59.5825 11.2436C54.3356 11.2436 51.9141 15.4228 51.9141 19.2131C51.9141 23.9013 54.8634 26.8293 60.017 26.8293C62.0662 26.8293 63.9597 26.5247 65.5122 25.8841L64.8911 22.7454C63.6184 23.1706 62.3144 23.383 60.7002 23.383C58.4959 23.383 56.5712 22.472 56.4157 20.5299L66.1953 20.5595V20.5604ZM56.385 17.3451C56.5091 16.1248 57.3163 14.3248 59.3343 14.3248C61.476 14.3248 61.9731 16.2471 61.9731 17.3451H56.385Z" fill="#B3B3B3"/>
<path fill-rule="evenodd" clip-rule="evenodd" d="M77.9993 5.76517V12.9515H77.9374C77.2542 11.9457 75.8258 11.2746 73.9325 11.2746C70.2998 11.2746 67.1023 14.2027 67.133 19.2044C67.133 23.841 70.0205 26.8604 73.6217 26.8604C75.5776 26.8604 77.4403 26.0061 78.3716 24.3589H78.465L78.6512 26.5248H82.8428C82.7806 25.5182 82.718 23.7796 82.718 22.0719V5.76517H77.9993ZM77.9993 19.9063C77.9993 20.2719 77.9682 20.6383 77.906 20.943C77.627 22.2547 76.5089 23.1695 75.1433 23.1695C73.1873 23.1695 71.9143 21.5836 71.9143 19.0825C71.9143 16.7342 73.0012 14.8433 75.1741 14.8433C76.633 14.8433 77.6578 15.8494 77.9374 17.0998C77.9993 17.3748 77.9993 17.6799 77.9993 17.9541V19.9063Z" fill="#B3B3B3"/>
<path fill-rule="evenodd" clip-rule="evenodd" d="M87.4609 2.26836C87.4609 1.01592 88.4946 0 89.7698 0H116.396C117.671 0 118.705 1.01592 118.705 2.26836V29.3977C118.705 30.6506 117.671 31.666 116.396 31.666H89.7698C88.4946 31.666 87.4609 30.6506 87.4609 29.3977V2.26836ZM96.9317 26.5078V12.2088H92.2126V26.5078H96.9317ZM94.5721 10.2566C96.2178 10.2566 97.2421 9.15856 97.2421 7.78637C97.2114 6.3833 96.2178 5.31576 94.6033 5.31576C92.9891 5.31576 91.9336 6.3833 91.9336 7.78637C91.9336 9.15856 92.9577 10.2566 94.5414 10.2566H94.5721ZM104.262 26.5078H99.543C99.543 26.5078 99.605 13.5506 99.5431 12.2088H104.262V14.2333C104.252 14.2499 104.241 14.2663 104.231 14.2826H104.262V14.2333C104.889 13.259 106.012 11.8733 108.515 11.8733C111.62 11.8733 113.948 13.917 113.948 18.309V26.5078H109.229V18.8582C109.229 16.936 108.546 15.6247 106.839 15.6247C105.535 15.6247 104.759 16.509 104.417 17.3629C104.293 17.6684 104.262 18.0953 104.262 18.5227V26.5078Z" fill="#B3B3B3"/>
</svg>
