<svg width="114" height="36" viewBox="0 0 114 36" fill="none" xmlns="http://www.w3.org/2000/svg">
<path d="M34.4615 24.8302C36.5188 24.8302 37.7164 23.2917 37.6275 21.7777C37.6051 21.2049 37.5342 20.635 37.4155 20.0741C36.154 14.6074 31.7075 10.5662 26.4151 10.5662C20.1434 10.5662 15.0566 16.2424 15.0566 23.2452C15.0566 30.2481 20.1422 35.9231 26.4151 35.9231C30.3448 35.9231 33.1512 34.4921 35.1938 32.249C35.4287 31.9925 35.6062 31.6888 35.7143 31.3582C35.8223 31.0277 35.8586 30.6778 35.8205 30.3321C35.7825 29.9863 35.6711 29.6527 35.4937 29.3535C35.3164 29.0543 35.0772 28.7965 34.7921 28.5972C33.8057 27.9117 32.5569 28.1427 31.6392 28.9175C30.7632 29.657 29.0897 31.1705 26.4151 31.1705C23.2205 31.1705 20.5559 28.4479 19.945 24.831L34.4615 24.8302ZM26.4151 15.3219C29.2901 15.3219 31.7341 17.5273 32.6419 20.6048H20.1887C21.0953 17.5261 23.5389 15.3219 26.4151 15.3219Z" fill="#B3B3B3"/>
<path d="M15.3222 13.0236C15.3218 12.4616 15.1221 11.9179 14.7588 11.4891C14.3954 11.0603 13.8918 10.7742 13.3375 10.6817C9.87574 10.1597 6.63988 11.4521 4.75759 13.7921V13.4745C4.75777 13.1622 4.69643 12.8528 4.57706 12.5642C4.45769 12.2755 4.28263 12.0132 4.06188 11.7922C3.84113 11.5712 3.57901 11.3958 3.29048 11.2761C3.00196 11.1564 2.69268 11.0947 2.38031 11.0945C2.06794 11.0943 1.75859 11.1556 1.46993 11.275C1.18127 11.3944 0.918945 11.5694 0.697936 11.7902C0.476928 12.0109 0.301563 12.2731 0.181856 12.5616C0.0621481 12.8501 0.000441432 13.1594 0.000258993 13.4718V32.9258C-0.00872644 33.5427 0.216383 34.1401 0.630246 34.5976C1.04411 35.0551 1.61598 35.3389 2.23067 35.3916C2.55462 35.4117 2.87925 35.3652 3.18455 35.255C3.48985 35.1448 3.76935 34.9733 4.00583 34.7509C4.24232 34.5286 4.43077 34.2602 4.55958 33.9623C4.68839 33.6644 4.75483 33.3433 4.75481 33.0187V22.9829C4.75481 18.5419 8.09467 14.8956 12.6777 15.391C12.8338 15.4083 12.9913 15.4083 13.1473 15.391C13.7405 15.3405 14.293 15.0692 14.6958 14.6308C15.0985 14.1924 15.322 13.6189 15.3222 13.0236Z" fill="#B3B3B3"/>
<path d="M96.944 15.5847C96.944 14.9542 96.6935 14.3495 96.2477 13.9037C95.8019 13.4579 95.1972 13.2074 94.5667 13.2074C93.9362 13.2074 93.3316 13.4579 92.8857 13.9037C92.4399 14.3495 92.1895 14.9542 92.1895 15.5847V33.0187C92.1895 33.6492 92.4399 34.2539 92.8857 34.6997C93.3316 35.1455 93.9362 35.396 94.5667 35.396C95.1972 35.396 95.8019 35.1455 96.2477 34.6997C96.6935 34.2539 96.944 33.6492 96.944 33.0187V15.5847Z" fill="#B3B3B3"/>
<path d="M61.5479 2.37728C61.5479 1.74678 61.2975 1.14211 60.8517 0.696288C60.4058 0.250462 59.8012 0 59.1707 0C58.5402 0 57.9355 0.250462 57.4897 0.696288C57.0439 1.14211 56.7934 1.74678 56.7934 2.37728V12.9938C55.9983 12.1983 55.0496 11.5729 54.0051 11.1555C52.9607 10.7382 51.8422 10.5376 50.7178 10.5662C44.4462 10.5662 39.3594 16.2424 39.3594 23.2452C39.3594 30.2481 44.4446 35.9231 50.7178 35.9231C51.8508 35.9475 52.9771 35.7422 54.0286 35.3198C55.0802 34.8973 56.0354 34.2663 56.8367 33.4649C56.948 34.0458 57.2719 34.5643 57.7451 34.9192C58.2184 35.274 58.8069 35.4397 59.3957 35.3838C59.9846 35.3279 60.5314 35.0544 60.9294 34.6168C61.3274 34.1792 61.5479 33.609 61.5479 33.0175V2.37728ZM50.7178 31.1697C47.0707 31.1697 44.1139 27.6215 44.1139 23.2452C44.1139 18.869 47.0707 15.3219 50.7178 15.3219C54.3649 15.3219 57.3213 18.8698 57.3213 23.2464C57.3213 27.6231 54.3649 31.1697 50.7178 31.1697Z" fill="#B3B3B3"/>
<path d="M86.3776 2.37728C86.3776 1.74678 86.1272 1.14211 85.6813 0.696288C85.2355 0.250462 84.6308 0 84.0004 0C83.3699 0 82.7652 0.250462 82.3194 0.696288C81.8735 1.14211 81.6231 1.74678 81.6231 2.37728V12.9938C80.828 12.1983 79.8793 11.5728 78.8349 11.1554C77.7904 10.7381 76.6719 10.5376 75.5475 10.5662C69.2759 10.5662 64.1895 16.2424 64.1895 23.2452C64.1895 30.2481 69.2747 35.9231 75.5475 35.9231C76.6806 35.9475 77.8069 35.7422 78.8585 35.3198C79.9102 34.8973 80.8654 34.2663 81.6667 33.4649C81.7776 34.0461 82.1013 34.5651 82.5746 34.9204C83.0479 35.2756 83.6367 35.4414 84.2258 35.3855C84.8149 35.3295 85.362 35.0558 85.7599 34.6179C86.1579 34.1799 86.3782 33.6093 86.3776 33.0175V2.37728ZM75.5475 31.1697C71.9004 31.1697 68.944 27.6215 68.944 23.2452C68.944 18.869 71.9004 15.3219 75.5475 15.3219C79.1946 15.3219 82.1514 18.8698 82.1514 23.2464C82.1514 27.6231 79.195 31.1697 75.5475 31.1697Z" fill="#B3B3B3"/>
<path d="M109.022 33.0187V15.322H111.135C111.681 15.3289 112.208 15.1296 112.613 14.7638C113.017 14.398 113.269 13.8928 113.316 13.3496C113.335 13.0608 113.295 12.7712 113.198 12.4987C113.101 12.2261 112.949 11.9765 112.751 11.7651C112.553 11.5538 112.314 11.3853 112.049 11.2701C111.783 11.1549 111.497 11.0954 111.208 11.0953H109.022V7.74039C109.03 7.12682 108.806 6.53292 108.394 6.07782C107.983 5.62271 107.414 5.34004 106.803 5.28651C106.478 5.26487 106.152 5.31017 105.846 5.41959C105.539 5.52901 105.258 5.70022 105.021 5.92261C104.783 6.14501 104.593 6.41384 104.464 6.71246C104.334 7.01108 104.268 7.33312 104.268 7.65862V11.0926H102.299C101.754 11.0855 101.226 11.2849 100.821 11.6508C100.417 12.0166 100.165 12.522 100.118 13.0653C100.099 13.3541 100.139 13.6436 100.236 13.9162C100.333 14.1887 100.486 14.4383 100.683 14.6496C100.881 14.8609 101.12 15.0294 101.385 15.1446C101.651 15.2597 101.937 15.3192 102.227 15.3192H104.268V33.0187C104.268 33.6492 104.518 34.2539 104.964 34.6997C105.41 35.1456 106.014 35.396 106.645 35.396C107.275 35.396 107.88 35.1456 108.326 34.6997C108.772 34.2539 109.022 33.6492 109.022 33.0187Z" fill="#B3B3B3"/>
</svg>
