<svg width="99" height="33" viewBox="0 0 99 33" fill="none" xmlns="http://www.w3.org/2000/svg">
<path fill-rule="evenodd" clip-rule="evenodd" d="M96.7388 11.5025L92.7794 7.54333H85.424V2.45113H79.1999V25.646H85.424V13.7651H90.5147V25.646H96.7388V11.5025ZM76.9384 7.54333H67.321L63.3607 11.5025V21.6852L67.321 25.646H76.9384V19.4237H69.583V13.7651H76.9384V7.54333ZM61.0978 7.54333H56.007V2.45113H49.7829V21.6852L53.7432 25.646H61.0978V19.4237H56.007V13.7651H61.0978V7.54333ZM47.52 2.45113H41.2976V5.28071H47.52V2.45113ZM47.52 7.54333H41.2976V25.6458H47.52V7.54333ZM39.0347 7.54333H32.8118V19.4237H30.5495V7.54333H24.3262V19.4237H22.0642V7.54333H15.8401V25.646H35.0753L39.0347 21.6852V7.54333ZM13.5772 7.54333H8.48614V2.45113H2.2632V21.6852L6.22322 25.646H13.5772V19.4237H8.48614V13.7651H13.5772V7.54333ZM99 10.3709V27.3423L90.5147 33H84.8579V30.1704L80.8979 33H75.8071V30.1704L72.9793 33H63.9273L61.0978 30.1704L60.5314 33H52.6125L49.3741 30.1704L49.1927 33H40.2168L39.8994 30.1704L37.4696 33H23.7598L20.9308 31.8684V33H13.5772L5.09104 27.9072L0 22.8182V0.188793H10.7493L15.8401 5.28071H39.0347V0.188793H58.269V5.28071H63.3607V8.10855L66.1902 5.28071H71.8462L76.9384 0.188793H87.6869V5.28071H93.9101L99 10.3709Z" fill="#B3B3B3"/>
</svg>
