<svg width="128" height="38" viewBox="0 0 128 38" fill="none" xmlns="http://www.w3.org/2000/svg">
<path fill-rule="evenodd" clip-rule="evenodd" d="M55.327 22.1429H55.2909L53.0805 13.2281H50.4171L48.1703 22.0347H48.1342L46.087 13.2281H43.2422L46.6667 26.1651H49.548L51.7036 17.3602H51.7401L53.9318 26.1651H56.7588L60.2375 13.2281H57.4477L55.327 22.1429ZM68.9161 17.6045C68.662 17.2721 68.3149 17.0133 67.8744 16.8258C67.4331 16.638 66.8686 16.5447 66.1805 16.5447C65.6968 16.5447 65.2018 16.669 64.694 16.9157C64.1875 17.1637 63.7703 17.559 63.4439 18.103H63.3901V13.2281H60.8169V26.1651H63.3901V21.2555C63.3901 20.3016 63.5463 19.6161 63.8607 19.1986C64.175 18.7816 64.6821 18.5742 65.3832 18.5742C65.9985 18.5742 66.4275 18.7638 66.6691 19.1445C66.9106 19.5252 67.032 20.103 67.032 20.8748V26.1651H69.6044V20.4044C69.6044 19.8243 69.5535 19.2962 69.4511 18.819C69.3474 18.3417 69.1695 17.9369 68.9161 17.6045ZM79.5145 24.0822V19.2078C79.5145 18.6405 79.3882 18.1841 79.1338 17.8402C78.8804 17.4959 78.5541 17.2266 78.1561 17.0334C77.7574 16.8402 77.3155 16.7101 76.8332 16.6438C76.3501 16.5785 75.873 16.5445 75.4021 16.5445C74.883 16.5445 74.3658 16.5961 73.853 16.6982C73.3388 16.8006 72.8773 16.9729 72.4664 17.2144C72.0559 17.4566 71.7177 17.7763 71.4527 18.1744C71.1865 18.574 71.0354 19.0748 70.999 19.6796H73.5718C73.6201 19.1714 73.7901 18.8092 74.0793 18.5917C74.3691 18.3744 74.7671 18.2652 75.2753 18.2652C75.5046 18.2652 75.7185 18.2807 75.9183 18.3112C76.1173 18.3416 76.2928 18.4014 76.444 18.4916C76.595 18.5831 76.7154 18.7096 76.8062 18.8723C76.8964 19.0362 76.9421 19.2565 76.9421 19.5338C76.9539 19.7994 76.8751 20.0024 76.7066 20.1412C76.537 20.2804 76.3083 20.3859 76.0177 20.4575C75.7279 20.5308 75.3957 20.5856 75.0214 20.6207C74.6466 20.6575 74.2662 20.7061 73.8801 20.7666C73.4929 20.8271 73.1098 20.9086 72.7297 21.011C72.349 21.1133 72.0097 21.268 71.7157 21.4728C71.4191 21.6792 71.1769 21.9529 70.9902 22.2975C70.8028 22.6418 70.7091 23.0794 70.7091 23.6101C70.7091 24.0945 70.7906 24.5112 70.9545 24.8602C71.1167 25.2116 71.3431 25.5014 71.6329 25.7303C71.9235 25.9608 72.261 26.1293 72.6479 26.2378C73.0338 26.3466 73.4507 26.4007 73.8981 26.4007C74.4778 26.4007 75.0458 26.3166 75.6003 26.1483C76.1561 25.9776 76.6405 25.682 77.0504 25.2597C77.0623 25.4162 77.0835 25.5705 77.1139 25.7219C77.1442 25.8723 77.1834 26.021 77.2318 26.1651H79.8408C79.7204 25.9728 79.6354 25.682 79.5874 25.2962C79.5389 24.9099 79.5145 24.5052 79.5145 24.0822ZM76.9421 22.5412C76.9421 22.6861 76.9272 22.8804 76.8964 23.1217C76.8667 23.3633 76.7849 23.6009 76.6524 23.8367C76.5193 24.0724 76.3129 24.2752 76.0364 24.4434C75.7584 24.6127 75.366 24.6985 74.8582 24.6985C74.6534 24.6985 74.454 24.6792 74.2608 24.6434C74.0672 24.6076 73.8986 24.5438 73.753 24.4531C73.6087 24.3623 73.4934 24.2393 73.409 24.0822C73.3246 23.9247 73.2821 23.7315 73.2821 23.5024C73.2821 23.2609 73.3246 23.0612 73.409 22.9041C73.4934 22.748 73.6054 22.6182 73.7446 22.5152C73.8831 22.4118 74.0463 22.331 74.2334 22.2698C74.4209 22.209 74.6105 22.1616 74.8041 22.1249C75.0089 22.0891 75.2153 22.0586 75.4197 22.0347C75.6258 22.0114 75.8219 21.98 76.009 21.9442C76.1965 21.9077 76.3709 21.8627 76.5346 21.808C76.6975 21.7539 76.8336 21.6792 76.9424 21.5819V22.5412H76.9421ZM84.316 13.9894H81.743V16.7978H80.1857V18.5193H81.743V24.0447C81.743 24.5161 81.8222 24.8968 81.9788 25.1867C82.1363 25.4766 82.3504 25.7013 82.6215 25.8571C82.8936 26.0142 83.2076 26.1206 83.5641 26.1747C83.9199 26.2281 84.2986 26.2558 84.6963 26.2558C84.9511 26.2558 85.2099 26.249 85.4761 26.2378C85.7413 26.2256 85.9829 26.2017 86.2007 26.1651V24.172C86.0797 24.1968 85.9527 24.2156 85.82 24.2271C85.6873 24.2393 85.5483 24.2451 85.4033 24.2451C84.9686 24.2451 84.6787 24.172 84.5333 24.0271C84.3893 23.8822 84.3163 23.5923 84.3163 23.1577V18.5195H86.2009V16.798H84.3163V13.9894H84.316ZM94.9514 22.0621C94.7823 21.7664 94.5584 21.5181 94.281 21.3185C94.0033 21.1194 93.6852 20.9597 93.3296 20.838C92.9728 20.7181 92.6076 20.6157 92.2335 20.5308C91.8709 20.4464 91.5151 20.3676 91.1651 20.295C90.8147 20.2227 90.5029 20.1411 90.2312 20.0507C89.9598 19.9598 89.7398 19.842 89.5703 19.697C89.4008 19.5521 89.3172 19.3646 89.3172 19.1351C89.3172 18.9425 89.3646 18.7885 89.4612 18.673C89.5581 18.559 89.676 18.471 89.815 18.4101C89.9542 18.3503 90.1069 18.3112 90.2765 18.2932C90.4455 18.2749 90.603 18.2652 90.7476 18.2652C91.2068 18.2652 91.6055 18.3538 91.9443 18.528C92.2818 18.7038 92.4696 19.0385 92.5045 19.5338H94.9514C94.903 18.9541 94.7553 18.474 94.507 18.0934C94.2603 17.713 93.9486 17.4085 93.5748 17.1785C93.2003 16.9495 92.7744 16.7862 92.2966 16.689C91.8193 16.5924 91.3276 16.5447 90.8211 16.5447C90.3133 16.5447 89.8177 16.5897 89.3356 16.6809C88.851 16.7708 88.4162 16.9282 88.031 17.1515C87.6432 17.3749 87.3336 17.6799 87.0972 18.0664C86.8614 18.4532 86.7435 18.9485 86.7435 19.5523C86.7435 19.9638 86.8286 20.3107 86.9979 20.594C87.1657 20.8781 87.3901 21.1133 87.6671 21.3011C87.9455 21.488 88.2628 21.6393 88.619 21.7539C88.9751 21.8692 89.341 21.9684 89.7146 22.0533C90.6337 22.2459 91.3492 22.4391 91.8625 22.6324C92.3758 22.8253 92.6322 23.1161 92.6322 23.5024C92.6322 23.7315 92.5781 23.9207 92.4696 24.0724C92.3611 24.2241 92.2246 24.3442 92.0618 24.435C91.898 24.5259 91.7169 24.5921 91.5186 24.6337C91.3189 24.6766 91.1283 24.6985 90.9469 24.6985C90.6938 24.6985 90.4488 24.667 90.2144 24.6076C89.9779 24.5468 89.77 24.453 89.5886 24.3262C89.4073 24.1994 89.2586 24.0367 89.1443 23.8367C89.0304 23.6377 88.972 23.4001 88.972 23.1217H86.5262C86.5509 23.7498 86.6924 24.2724 86.9529 24.6888C87.2111 25.1054 87.5428 25.4404 87.9486 25.6945C88.353 25.9479 88.8159 26.1293 89.3356 26.2378C89.8538 26.3466 90.3857 26.4007 90.9286 26.4007C91.46 26.4007 91.9827 26.3494 92.4966 26.2474C93.0096 26.1443 93.4656 25.9659 93.8643 25.7122C94.2636 25.4587 94.5857 25.1235 94.8343 24.7067C95.081 24.2901 95.2046 23.7735 95.2046 23.1575C95.2044 22.7226 95.1203 22.3577 94.9514 22.0621ZM100.061 13.2281L95.1687 26.1651H98.0318L99.0455 23.2848H103.884L104.861 26.1651H107.816L102.978 13.2281H100.061ZM99.7887 21.1653L101.474 16.4172H101.51L103.141 21.1653H99.7887ZM116.711 18.0664C116.361 17.6075 115.92 17.2393 115.388 16.9612C114.856 16.6832 114.223 16.5449 113.487 16.5449C112.906 16.5449 112.375 16.6598 111.892 16.8888C111.407 17.1182 111.01 17.4868 110.697 17.994H110.66V16.798H108.213V29.445H110.787V25.0065H110.822C111.136 25.465 111.538 25.8122 112.028 26.0479C112.516 26.2836 113.051 26.4009 113.631 26.4009C114.32 26.4009 114.921 26.2675 115.434 26.0022C115.947 25.7372 116.376 25.3801 116.72 24.9334C117.065 24.4868 117.321 23.9732 117.491 23.3938C117.659 22.8134 117.744 22.209 117.744 21.5821C117.744 20.9175 117.659 20.2804 117.491 19.6702C117.321 19.0604 117.062 18.5259 116.711 18.0664ZM115.063 22.6144C114.99 22.977 114.866 23.2932 114.691 23.5651C114.516 23.8368 114.286 24.0584 114.002 24.2273C113.718 24.3954 113.365 24.481 112.942 24.481C112.531 24.481 112.182 24.3953 111.892 24.2273C111.602 24.0586 111.37 23.837 111.194 23.5651C111.019 23.2934 110.893 22.9771 110.813 22.6144C110.735 22.2518 110.697 21.8833 110.697 21.5099C110.697 21.1227 110.732 20.7483 110.804 20.3861C110.877 20.0238 111.001 19.703 111.176 19.4258C111.351 19.1475 111.58 18.9208 111.865 18.7457C112.149 18.5711 112.501 18.4838 112.925 18.4838C113.335 18.4838 113.683 18.5711 113.966 18.7457C114.25 18.9209 114.483 19.1514 114.664 19.4345C114.845 19.7186 114.974 20.0416 115.053 20.4045C115.132 20.7668 115.17 21.1359 115.17 21.51C115.171 21.8833 115.136 22.2518 115.063 22.6144ZM127.745 19.67C127.576 19.0604 127.316 18.5259 126.966 18.0662C126.615 17.6073 126.175 17.2392 125.644 16.961C125.112 16.683 124.477 16.5447 123.741 16.5447C123.161 16.5447 122.63 16.6596 122.147 16.8886C121.663 17.118 121.264 17.4867 120.951 17.9938H120.915V16.7978H118.469V29.4449H121.041V25.0063H121.077C121.392 25.4648 121.794 25.8121 122.283 26.0477C122.772 26.2835 123.307 26.4007 123.887 26.4007C124.575 26.4007 125.175 26.2673 125.689 26.002C126.202 25.7371 126.631 25.3799 126.975 24.9333C127.32 24.4866 127.576 23.973 127.745 23.3936C127.914 22.8133 127.999 22.2088 127.999 21.5819C127.999 20.9173 127.914 20.2802 127.745 19.67ZM125.318 22.6144C125.245 22.977 125.121 23.2932 124.947 23.5651C124.771 23.8368 124.541 24.0584 124.257 24.2273C123.974 24.3954 123.62 24.481 123.198 24.481C122.787 24.481 122.437 24.3953 122.147 24.2273C121.856 24.0586 121.624 23.837 121.449 23.5651C121.275 23.2934 121.147 22.9771 121.068 22.6144C120.99 22.2518 120.951 21.8833 120.951 21.5099C120.951 21.1227 120.988 20.7483 121.06 20.3861C121.132 20.0238 121.256 19.703 121.431 19.4258C121.606 19.1475 121.836 18.9208 122.12 18.7457C122.403 18.5711 122.756 18.4838 123.18 18.4838C123.59 18.4838 123.937 18.5711 124.221 18.7457C124.505 18.9209 124.737 19.1514 124.918 19.4345C125.101 19.7186 125.23 20.0416 125.309 20.4045C125.388 20.7668 125.426 21.1359 125.426 21.51C125.426 21.8833 125.39 22.2518 125.318 22.6144Z" fill="#B3B3B3"/>
<path fill-rule="evenodd" clip-rule="evenodd" d="M19.126 0C8.9396 0 0.682106 8.25716 0.682106 18.4436C0.682106 21.9278 1.64912 25.1865 3.32859 27.9665L0 37.8616L10.2113 34.592C12.8535 36.0534 15.8922 36.8862 19.126 36.8862C29.3118 36.8862 37.5693 28.6293 37.5693 18.4436C37.5693 8.25716 29.3118 0 19.126 0ZM19.126 33.949C15.9762 33.949 13.0434 33.0043 10.5948 31.3846L4.63592 33.293L6.57259 27.5344C4.71638 24.9781 3.6196 21.837 3.6196 18.4433C3.6196 9.8931 10.5757 2.93716 19.126 2.93716C27.6758 2.93716 34.6321 9.8931 34.6321 18.4433C34.6321 26.9931 27.6758 33.949 19.126 33.949Z" fill="#B3B3B3"/>
<path fill-rule="evenodd" clip-rule="evenodd" d="M14.8008 10.8148C14.502 10.0947 14.2732 10.0703 13.8117 10.0484C13.6534 10.0408 13.4817 10.0336 13.2939 10.0336C12.6994 10.0336 12.0829 10.2087 11.7114 10.5887C11.2593 11.0512 10.1289 12.1345 10.1289 14.3587C10.1289 16.5832 11.749 18.7328 11.9747 19.0345C12.2011 19.3359 15.1345 23.9675 19.6983 25.8585C23.2606 27.334 24.3183 27.2026 25.131 27.0249C26.3135 26.7667 27.7984 25.8958 28.1751 24.8406C28.5519 23.7847 28.5519 22.8797 28.4389 22.6917C28.3258 22.5029 28.0244 22.3903 27.5723 22.1636C27.1202 21.9375 24.8972 20.8439 24.4828 20.6934C24.0683 20.5427 23.6851 20.5887 23.3664 21.0295C22.9265 21.6384 22.5034 22.2642 22.1531 22.6351C21.8781 22.9263 21.4355 22.9669 21.055 22.8051C20.5546 22.5919 19.146 22.1011 17.4189 20.5613C16.0751 19.3633 15.1676 17.8833 14.9038 17.4306C14.64 16.9785 14.8806 16.7085 15.0839 16.4625C15.3157 16.1818 15.5295 15.9801 15.7556 15.7165C15.9816 15.4523 16.1079 15.3117 16.2586 15.0096C16.4093 14.7082 16.3079 14.3971 16.1948 14.1707C16.0814 13.9442 15.1764 11.7203 14.8008 10.8148Z" fill="#B3B3B3"/>
</svg>
